G75*
G70*
%OFA0B0*%
%FSLAX24Y24*%
%IPPOS*%
%LPD*%
%AMOC8*
5,1,8,0,0,1.08239X$1,22.5*
%
%ADD10R,0.0394X0.0433*%
%ADD11R,0.0157X0.0433*%
%ADD12R,0.0433X0.0394*%
%ADD13C,0.0740*%
%ADD14R,0.0315X0.0118*%
%ADD15R,0.0118X0.0315*%
%ADD16R,0.0394X0.0394*%
%ADD17R,0.0500X0.0250*%
%ADD18C,0.0100*%
%ADD19OC8,0.0396*%
%ADD20OC8,0.0320*%
D10*
X003981Y007572D03*
X003981Y008241D03*
X009481Y006041D03*
X009481Y005372D03*
X010681Y005372D03*
X010681Y006041D03*
X012381Y006472D03*
X012381Y007141D03*
X010481Y009272D03*
X010481Y009941D03*
D11*
X005665Y008792D03*
X005409Y008792D03*
X005153Y008792D03*
X004898Y008792D03*
X004898Y007020D03*
X005153Y007020D03*
X005409Y007020D03*
X005665Y007020D03*
D12*
X005516Y006006D03*
X004847Y006006D03*
X004847Y005106D03*
X005516Y005106D03*
X003116Y009006D03*
X002447Y009006D03*
X004247Y009506D03*
X004916Y009506D03*
X004916Y010306D03*
X004247Y010306D03*
D13*
X000681Y001306D03*
X001681Y001306D03*
X002681Y001306D03*
X003681Y001306D03*
X004681Y001306D03*
X005681Y001306D03*
X006681Y001306D03*
X007681Y001306D03*
X008681Y001306D03*
X009681Y001306D03*
X010681Y001306D03*
X011681Y001306D03*
X012681Y001306D03*
X013681Y001306D03*
X009681Y002506D03*
X008681Y002506D03*
X007681Y002506D03*
X007181Y005436D03*
X007181Y006576D03*
X006681Y011306D03*
X005681Y011306D03*
X004681Y011306D03*
X003681Y011306D03*
X002681Y011306D03*
X001681Y011306D03*
X000681Y011306D03*
X007681Y011306D03*
X008681Y011306D03*
X009681Y011306D03*
X010681Y011306D03*
X011681Y011306D03*
X012681Y011306D03*
X013681Y011306D03*
D14*
X010969Y008098D03*
X010969Y007902D03*
X010969Y007705D03*
X010969Y007508D03*
X010969Y007311D03*
X010969Y007114D03*
X009394Y007114D03*
X009394Y007311D03*
X009394Y007508D03*
X009394Y007705D03*
X009394Y007902D03*
X009394Y008098D03*
D15*
X009689Y008394D03*
X009886Y008394D03*
X010083Y008394D03*
X010280Y008394D03*
X010477Y008394D03*
X010674Y008394D03*
X010674Y006819D03*
X010477Y006819D03*
X010280Y006819D03*
X010083Y006819D03*
X009886Y006819D03*
X009689Y006819D03*
D16*
X010181Y007606D03*
D17*
X008181Y006326D03*
X008181Y006006D03*
X008181Y005686D03*
D18*
X008161Y005686D01*
X007881Y005406D01*
X007211Y005406D01*
X007181Y005436D01*
X006081Y005306D02*
X006081Y006604D01*
X006783Y007306D01*
X007881Y007306D01*
X008969Y008394D01*
X009689Y008394D01*
X009886Y008394D02*
X009886Y008702D01*
X009781Y008806D01*
X008981Y008806D01*
X007781Y007606D01*
X005581Y007606D01*
X005409Y007434D01*
X005409Y007020D01*
X005409Y006678D01*
X005481Y006606D01*
X005481Y006041D01*
X005516Y006006D01*
X004881Y006041D02*
X004847Y006006D01*
X004847Y005106D01*
X004847Y004741D01*
X005247Y004341D01*
X009581Y004341D01*
X009681Y004241D01*
X009681Y002506D01*
X009581Y004341D02*
X010916Y004341D01*
X011681Y005106D01*
X011681Y006706D01*
X012116Y007141D01*
X012381Y007141D01*
X011681Y006706D02*
X011274Y007114D01*
X010969Y007114D01*
X010477Y006819D02*
X010477Y006611D01*
X010581Y006506D01*
X011081Y006506D01*
X011281Y006306D01*
X011281Y005506D01*
X011181Y005406D01*
X011147Y005372D01*
X010681Y005372D01*
X009481Y005372D01*
X009481Y006041D02*
X009681Y006241D01*
X009681Y006306D01*
X009886Y006511D01*
X009886Y006819D01*
X010083Y006819D02*
X010083Y006108D01*
X010081Y006106D01*
X010280Y006443D02*
X010681Y006041D01*
X010280Y006443D02*
X010280Y006819D01*
X008781Y006206D02*
X008781Y007906D01*
X008974Y008098D01*
X009394Y008098D01*
X010477Y008394D02*
X010477Y009267D01*
X010481Y009272D01*
X010481Y009941D02*
X010947Y009941D01*
X010981Y009906D01*
X011381Y008206D02*
X011274Y008098D01*
X010969Y008098D01*
X012381Y006472D02*
X012381Y005906D01*
X008781Y006206D02*
X008581Y006006D01*
X008181Y006006D01*
X008161Y006326D02*
X008181Y006326D01*
X008161Y006326D02*
X007881Y006606D01*
X007211Y006606D01*
X007181Y006576D01*
X006081Y006604D02*
X005665Y007020D01*
X005153Y007020D02*
X005153Y006678D01*
X004881Y006406D01*
X004881Y006041D01*
X004847Y005106D02*
X004181Y005106D01*
X002681Y003606D01*
X002681Y001306D01*
X001681Y001306D02*
X001681Y005306D01*
X002447Y006072D01*
X002447Y009006D01*
X002447Y009272D01*
X002781Y009606D01*
X004147Y009606D01*
X004247Y009506D01*
X004247Y010306D01*
X004916Y010306D02*
X005881Y010306D01*
X005881Y011106D01*
X005681Y011306D01*
X005881Y010306D02*
X006181Y010006D01*
X006181Y008906D01*
X005981Y008706D01*
X005751Y008706D01*
X005665Y008792D01*
X005409Y008792D02*
X005409Y009434D01*
X005581Y009606D01*
X005481Y009506D01*
X004916Y009506D01*
X004883Y008806D02*
X004481Y008806D01*
X003981Y008306D01*
X003981Y008241D01*
X003881Y008241D01*
X003116Y009006D01*
X003981Y007572D02*
X003981Y007006D01*
X004121Y007567D02*
X004581Y007106D01*
X004812Y007106D01*
X004898Y007020D01*
X004121Y007567D02*
X003986Y007567D01*
X003981Y007572D01*
X004898Y008792D02*
X005153Y008792D01*
X004898Y008792D02*
X004883Y008806D01*
X006081Y005306D02*
X005881Y005106D01*
X005516Y005106D01*
D19*
X003981Y007006D03*
X005581Y009606D03*
D20*
X010081Y006106D03*
X011181Y005406D03*
X012381Y005906D03*
X011381Y008206D03*
X010981Y009906D03*
M02*
