G75*
G70*
%OFA0B0*%
%FSLAX24Y24*%
%IPPOS*%
%LPD*%
%AMOC8*
5,1,8,0,0,1.08239X$1,22.5*
%
%ADD10C,0.0740*%
%ADD11C,0.0160*%
%ADD12OC8,0.0396*%
%ADD13C,0.0100*%
%ADD14OC8,0.0320*%
D10*
X000681Y001306D03*
X001681Y001306D03*
X002681Y001306D03*
X003681Y001306D03*
X004681Y001306D03*
X005681Y001306D03*
X006681Y001306D03*
X007681Y001306D03*
X008681Y001306D03*
X009681Y001306D03*
X010681Y001306D03*
X011681Y001306D03*
X012681Y001306D03*
X013681Y001306D03*
X009681Y002506D03*
X008681Y002506D03*
X007681Y002506D03*
X007181Y005436D03*
X007181Y006576D03*
X006681Y011306D03*
X005681Y011306D03*
X004681Y011306D03*
X003681Y011306D03*
X002681Y011306D03*
X001681Y011306D03*
X000681Y011306D03*
X007681Y011306D03*
X008681Y011306D03*
X009681Y011306D03*
X010681Y011306D03*
X011681Y011306D03*
X012681Y011306D03*
X013681Y011306D03*
D11*
X013181Y011129D02*
X013232Y011006D01*
X013381Y010857D01*
X013576Y010776D01*
X013771Y010776D01*
X013771Y001836D01*
X013576Y001836D01*
X013381Y001756D01*
X013232Y001606D01*
X013181Y001484D01*
X013131Y001606D01*
X012982Y001756D01*
X012787Y001836D01*
X012576Y001836D01*
X012381Y001756D01*
X012232Y001606D01*
X012181Y001484D01*
X012131Y001606D01*
X011982Y001756D01*
X011787Y001836D01*
X011576Y001836D01*
X011381Y001756D01*
X011232Y001606D01*
X011181Y001484D01*
X011131Y001606D01*
X010982Y001756D01*
X010787Y001836D01*
X010576Y001836D01*
X010381Y001756D01*
X010232Y001606D01*
X010181Y001484D01*
X010131Y001606D01*
X009982Y001756D01*
X009787Y001836D01*
X009576Y001836D01*
X009381Y001756D01*
X009232Y001606D01*
X009181Y001484D01*
X009131Y001606D01*
X008982Y001756D01*
X008787Y001836D01*
X008576Y001836D01*
X008381Y001756D01*
X008232Y001606D01*
X008181Y001484D01*
X008131Y001606D01*
X007982Y001756D01*
X007787Y001836D01*
X007576Y001836D01*
X007381Y001756D01*
X007232Y001606D01*
X007181Y001484D01*
X007131Y001606D01*
X006982Y001756D01*
X006787Y001836D01*
X006576Y001836D01*
X006381Y001756D01*
X006232Y001606D01*
X006181Y001484D01*
X006131Y001606D01*
X005982Y001756D01*
X005787Y001836D01*
X005576Y001836D01*
X005381Y001756D01*
X005232Y001606D01*
X005181Y001484D01*
X005131Y001606D01*
X004982Y001756D01*
X004787Y001836D01*
X004576Y001836D01*
X004381Y001756D01*
X004232Y001606D01*
X004181Y001484D01*
X004131Y001606D01*
X003982Y001756D01*
X003787Y001836D01*
X003576Y001836D01*
X003381Y001756D01*
X003232Y001606D01*
X003181Y001484D01*
X003131Y001606D01*
X002982Y001756D01*
X002787Y001836D01*
X002576Y001836D01*
X002381Y001756D01*
X002232Y001606D01*
X002181Y001484D01*
X002131Y001606D01*
X001982Y001756D01*
X001787Y001836D01*
X001576Y001836D01*
X001381Y001756D01*
X001232Y001606D01*
X001193Y001512D01*
X001191Y001517D01*
X001152Y001595D01*
X001101Y001665D01*
X001040Y001726D01*
X000970Y001777D01*
X000893Y001816D01*
X000810Y001843D01*
X000725Y001856D01*
X000701Y001856D01*
X000701Y001327D01*
X000661Y001327D01*
X000661Y011286D01*
X000701Y011286D01*
X000701Y010756D01*
X000725Y010756D01*
X000810Y010770D01*
X000893Y010797D01*
X000970Y010836D01*
X001040Y010887D01*
X001101Y010948D01*
X001152Y011018D01*
X001191Y011095D01*
X001193Y011101D01*
X001232Y011006D01*
X001381Y010857D01*
X001576Y010776D01*
X001787Y010776D01*
X001982Y010857D01*
X002131Y011006D01*
X002181Y011128D01*
X002232Y011006D01*
X002381Y010857D01*
X002576Y010776D01*
X002787Y010776D01*
X002982Y010857D01*
X003131Y011006D01*
X003181Y011128D01*
X003232Y011006D01*
X003381Y010857D01*
X003576Y010776D01*
X003787Y010776D01*
X003982Y010857D01*
X004131Y011006D01*
X004181Y011128D01*
X004232Y011006D01*
X004381Y010857D01*
X004471Y010820D01*
X004471Y010119D01*
X004594Y009996D01*
X005194Y009396D01*
X005285Y009396D01*
X005433Y009248D01*
X005730Y009248D01*
X005939Y009458D01*
X005939Y009755D01*
X005730Y009964D01*
X005433Y009964D01*
X005327Y009858D01*
X004891Y010293D01*
X004891Y010820D01*
X004982Y010857D01*
X005131Y011006D01*
X005181Y011128D01*
X005232Y011006D01*
X005381Y010857D01*
X005576Y010776D01*
X005787Y010776D01*
X005982Y010857D01*
X006131Y011006D01*
X006181Y011128D01*
X006232Y011006D01*
X006381Y010857D01*
X006576Y010776D01*
X006787Y010776D01*
X006982Y010857D01*
X007131Y011006D01*
X007181Y011128D01*
X007232Y011006D01*
X007381Y010857D01*
X007576Y010776D01*
X007787Y010776D01*
X007982Y010857D01*
X008131Y011006D01*
X008181Y011128D01*
X008232Y011006D01*
X008381Y010857D01*
X008576Y010776D01*
X008787Y010776D01*
X008982Y010857D01*
X009131Y011006D01*
X009181Y011128D01*
X009232Y011006D01*
X009381Y010857D01*
X009576Y010776D01*
X009787Y010776D01*
X009982Y010857D01*
X010131Y011006D01*
X010181Y011128D01*
X010232Y011006D01*
X010381Y010857D01*
X010576Y010776D01*
X010787Y010776D01*
X010982Y010857D01*
X011131Y011006D01*
X011181Y011128D01*
X011232Y011006D01*
X011381Y010857D01*
X011576Y010776D01*
X011787Y010776D01*
X011982Y010857D01*
X012131Y011006D01*
X012181Y011129D01*
X012232Y011006D01*
X012381Y010857D01*
X012576Y010776D01*
X012787Y010776D01*
X012982Y010857D01*
X013131Y011006D01*
X013181Y011129D01*
X013174Y011112D02*
X013188Y011112D01*
X013285Y010953D02*
X013078Y010953D01*
X012831Y010795D02*
X013532Y010795D01*
X013771Y010636D02*
X004891Y010636D01*
X004891Y010477D02*
X013771Y010477D01*
X013771Y010319D02*
X004891Y010319D01*
X005024Y010160D02*
X013771Y010160D01*
X013771Y010002D02*
X005183Y010002D01*
X004906Y009685D02*
X000661Y009685D01*
X000661Y009526D02*
X005065Y009526D01*
X005314Y009368D02*
X000661Y009368D01*
X000661Y009209D02*
X013771Y009209D01*
X013771Y009051D02*
X000661Y009051D01*
X000661Y008892D02*
X013771Y008892D01*
X013771Y008733D02*
X000661Y008733D01*
X000661Y008575D02*
X013771Y008575D01*
X013771Y008416D02*
X000661Y008416D01*
X000661Y008258D02*
X013771Y008258D01*
X013771Y008099D02*
X000661Y008099D01*
X000661Y007941D02*
X013771Y007941D01*
X013771Y007782D02*
X000661Y007782D01*
X000661Y007624D02*
X013771Y007624D01*
X013771Y007465D02*
X000661Y007465D01*
X000661Y007307D02*
X013771Y007307D01*
X013771Y007148D02*
X000661Y007148D01*
X000661Y006989D02*
X006845Y006989D01*
X006881Y007026D02*
X006732Y006876D01*
X006651Y006682D01*
X006651Y006471D01*
X006732Y006276D01*
X006881Y006127D01*
X007076Y006046D01*
X007287Y006046D01*
X007482Y006127D01*
X007631Y006276D01*
X007711Y006471D01*
X007711Y006682D01*
X007631Y006876D01*
X007482Y007026D01*
X007287Y007106D01*
X007076Y007106D01*
X006881Y007026D01*
X006713Y006831D02*
X000661Y006831D01*
X000661Y006672D02*
X006651Y006672D01*
X006651Y006514D02*
X000661Y006514D01*
X000661Y006355D02*
X006699Y006355D01*
X006811Y006197D02*
X000661Y006197D01*
X000661Y006038D02*
X009761Y006038D01*
X009761Y005974D02*
X009871Y005864D01*
X009871Y004493D01*
X008594Y003216D01*
X008471Y003093D01*
X008471Y002993D01*
X008381Y002956D01*
X008232Y002806D01*
X008193Y002712D01*
X008191Y002717D01*
X008152Y002795D01*
X008101Y002865D01*
X008040Y002926D01*
X007970Y002977D01*
X007893Y003016D01*
X007810Y003043D01*
X007725Y003056D01*
X007701Y003056D01*
X007701Y002527D01*
X007661Y002527D01*
X007661Y003056D01*
X007638Y003056D01*
X007553Y003043D01*
X007470Y003016D01*
X007393Y002977D01*
X007323Y002926D01*
X007262Y002865D01*
X007211Y002795D01*
X007172Y002717D01*
X007145Y002635D01*
X007131Y002550D01*
X007132Y002550D02*
X000661Y002550D01*
X000661Y002709D02*
X007169Y002709D01*
X007131Y002550D02*
X007131Y002526D01*
X007661Y002526D01*
X007661Y002486D01*
X007131Y002486D01*
X007131Y002463D01*
X007145Y002377D01*
X007172Y002295D01*
X007211Y002218D01*
X007262Y002148D01*
X007323Y002087D01*
X007393Y002036D01*
X007470Y001997D01*
X007553Y001970D01*
X007638Y001956D01*
X007661Y001956D01*
X007661Y002486D01*
X007701Y002486D01*
X007701Y001956D01*
X007725Y001956D01*
X007810Y001970D01*
X007893Y001997D01*
X007970Y002036D01*
X008040Y002087D01*
X008101Y002148D01*
X008152Y002218D01*
X008191Y002295D01*
X008193Y002301D01*
X008232Y002206D01*
X008381Y002057D01*
X008576Y001976D01*
X008787Y001976D01*
X008982Y002057D01*
X009131Y002206D01*
X009181Y002329D01*
X009232Y002206D01*
X009381Y002057D01*
X009576Y001976D01*
X009787Y001976D01*
X009982Y002057D01*
X010131Y002206D01*
X010211Y002401D01*
X010211Y002612D01*
X010131Y002806D01*
X009982Y002956D01*
X009787Y003036D01*
X009576Y003036D01*
X009381Y002956D01*
X009232Y002806D01*
X009181Y002684D01*
X009131Y002806D01*
X008982Y002956D01*
X008943Y002971D01*
X010291Y004319D01*
X010291Y004493D01*
X010291Y005864D01*
X010401Y005974D01*
X010401Y006239D01*
X010214Y006426D01*
X009949Y006426D01*
X009761Y006239D01*
X009761Y005974D01*
X009855Y005880D02*
X007507Y005880D01*
X007540Y005856D02*
X007470Y005907D01*
X007393Y005946D01*
X007310Y005973D01*
X007225Y005986D01*
X007201Y005986D01*
X007201Y005457D01*
X007161Y005457D01*
X007161Y005986D01*
X007138Y005986D01*
X007053Y005973D01*
X006970Y005946D01*
X006893Y005907D01*
X006823Y005856D01*
X006762Y005795D01*
X006711Y005725D01*
X006672Y005647D01*
X006645Y005565D01*
X006631Y005480D01*
X006631Y005456D01*
X007161Y005456D01*
X007161Y005416D01*
X006631Y005416D01*
X006631Y005393D01*
X006645Y005307D01*
X006672Y005225D01*
X006711Y005148D01*
X006762Y005078D01*
X006823Y005017D01*
X006893Y004966D01*
X006970Y004927D01*
X007053Y004900D01*
X007138Y004886D01*
X007161Y004886D01*
X007161Y005416D01*
X007201Y005416D01*
X007201Y004886D01*
X007225Y004886D01*
X007310Y004900D01*
X007393Y004927D01*
X007470Y004966D01*
X007540Y005017D01*
X007601Y005078D01*
X007652Y005148D01*
X007691Y005225D01*
X007718Y005307D01*
X007731Y005393D01*
X007731Y005416D01*
X007202Y005416D01*
X007202Y005456D01*
X007731Y005456D01*
X007731Y005480D01*
X007718Y005565D01*
X007691Y005647D01*
X007652Y005725D01*
X007601Y005795D01*
X007540Y005856D01*
X007654Y005721D02*
X009871Y005721D01*
X009871Y005563D02*
X007718Y005563D01*
X007731Y005404D02*
X009871Y005404D01*
X009871Y005246D02*
X007698Y005246D01*
X007607Y005087D02*
X009871Y005087D01*
X009871Y004928D02*
X007396Y004928D01*
X007201Y004928D02*
X007161Y004928D01*
X007161Y005087D02*
X007201Y005087D01*
X007201Y005246D02*
X007161Y005246D01*
X007161Y005404D02*
X007201Y005404D01*
X007201Y005563D02*
X007161Y005563D01*
X007161Y005721D02*
X007201Y005721D01*
X007201Y005880D02*
X007161Y005880D01*
X006856Y005880D02*
X000661Y005880D01*
X000661Y005721D02*
X006709Y005721D01*
X006645Y005563D02*
X000661Y005563D01*
X000661Y005404D02*
X006631Y005404D01*
X006665Y005246D02*
X000661Y005246D01*
X000661Y005087D02*
X006755Y005087D01*
X006967Y004928D02*
X000661Y004928D01*
X000661Y004770D02*
X009871Y004770D01*
X009871Y004611D02*
X000661Y004611D01*
X000661Y004453D02*
X009831Y004453D01*
X009672Y004294D02*
X000661Y004294D01*
X000661Y004136D02*
X009514Y004136D01*
X009355Y003977D02*
X000661Y003977D01*
X000661Y003819D02*
X009197Y003819D01*
X009038Y003660D02*
X000661Y003660D01*
X000661Y003502D02*
X008880Y003502D01*
X008721Y003343D02*
X000661Y003343D01*
X000661Y003184D02*
X008563Y003184D01*
X008471Y003026D02*
X007862Y003026D01*
X007701Y003026D02*
X007661Y003026D01*
X007501Y003026D02*
X000661Y003026D01*
X000661Y002867D02*
X007265Y002867D01*
X007661Y002867D02*
X007701Y002867D01*
X007701Y002709D02*
X007661Y002709D01*
X007661Y002550D02*
X007701Y002550D01*
X007701Y002392D02*
X007661Y002392D01*
X007661Y002233D02*
X007701Y002233D01*
X007701Y002075D02*
X007661Y002075D01*
X007340Y002075D02*
X000661Y002075D01*
X000661Y002233D02*
X007203Y002233D01*
X007143Y002392D02*
X000661Y002392D01*
X000661Y001916D02*
X013771Y001916D01*
X013771Y002075D02*
X009999Y002075D01*
X010142Y002233D02*
X013771Y002233D01*
X013771Y002392D02*
X010208Y002392D01*
X010211Y002550D02*
X013771Y002550D01*
X013771Y002709D02*
X010171Y002709D01*
X010070Y002867D02*
X013771Y002867D01*
X013771Y003026D02*
X009812Y003026D01*
X009551Y003026D02*
X008998Y003026D01*
X009156Y003184D02*
X013771Y003184D01*
X013771Y003343D02*
X009315Y003343D01*
X009474Y003502D02*
X013771Y003502D01*
X013771Y003660D02*
X009632Y003660D01*
X009791Y003819D02*
X013771Y003819D01*
X013771Y003977D02*
X009949Y003977D01*
X010108Y004136D02*
X013771Y004136D01*
X013771Y004294D02*
X010266Y004294D01*
X010291Y004453D02*
X013771Y004453D01*
X013771Y004611D02*
X010291Y004611D01*
X010291Y004770D02*
X013771Y004770D01*
X013771Y004928D02*
X010291Y004928D01*
X010291Y005087D02*
X013771Y005087D01*
X013771Y005246D02*
X010291Y005246D01*
X010291Y005404D02*
X013771Y005404D01*
X013771Y005563D02*
X010291Y005563D01*
X010291Y005721D02*
X013771Y005721D01*
X013771Y005880D02*
X010307Y005880D01*
X010401Y006038D02*
X013771Y006038D01*
X013771Y006197D02*
X010401Y006197D01*
X010285Y006355D02*
X013771Y006355D01*
X013771Y006514D02*
X007711Y006514D01*
X007711Y006672D02*
X013771Y006672D01*
X013771Y006831D02*
X007650Y006831D01*
X007518Y006989D02*
X013771Y006989D01*
X013771Y009368D02*
X005849Y009368D01*
X005939Y009526D02*
X013771Y009526D01*
X013771Y009685D02*
X005939Y009685D01*
X005851Y009843D02*
X013771Y009843D01*
X012532Y010795D02*
X011831Y010795D01*
X012078Y010953D02*
X012285Y010953D01*
X012188Y011112D02*
X012174Y011112D01*
X011532Y010795D02*
X010831Y010795D01*
X011078Y010953D02*
X011285Y010953D01*
X011188Y011112D02*
X011174Y011112D01*
X010532Y010795D02*
X009831Y010795D01*
X010078Y010953D02*
X010285Y010953D01*
X010188Y011112D02*
X010174Y011112D01*
X009532Y010795D02*
X008831Y010795D01*
X009078Y010953D02*
X009285Y010953D01*
X009188Y011112D02*
X009174Y011112D01*
X008532Y010795D02*
X007831Y010795D01*
X008078Y010953D02*
X008285Y010953D01*
X008188Y011112D02*
X008174Y011112D01*
X007532Y010795D02*
X006831Y010795D01*
X007078Y010953D02*
X007285Y010953D01*
X007188Y011112D02*
X007174Y011112D01*
X006532Y010795D02*
X005831Y010795D01*
X006078Y010953D02*
X006285Y010953D01*
X006188Y011112D02*
X006174Y011112D01*
X005532Y010795D02*
X004891Y010795D01*
X005078Y010953D02*
X005285Y010953D01*
X005188Y011112D02*
X005174Y011112D01*
X004471Y010795D02*
X003831Y010795D01*
X004078Y010953D02*
X004285Y010953D01*
X004188Y011112D02*
X004174Y011112D01*
X004471Y010636D02*
X000661Y010636D01*
X000661Y010477D02*
X004471Y010477D01*
X004471Y010319D02*
X000661Y010319D01*
X000661Y010160D02*
X004471Y010160D01*
X004589Y010002D02*
X000661Y010002D01*
X000661Y009843D02*
X004747Y009843D01*
X003532Y010795D02*
X002831Y010795D01*
X003078Y010953D02*
X003285Y010953D01*
X003188Y011112D02*
X003174Y011112D01*
X002532Y010795D02*
X001831Y010795D01*
X002078Y010953D02*
X002285Y010953D01*
X002188Y011112D02*
X002174Y011112D01*
X001532Y010795D02*
X000886Y010795D01*
X000701Y010795D02*
X000661Y010795D01*
X000661Y010953D02*
X000701Y010953D01*
X000701Y011112D02*
X000661Y011112D01*
X000661Y011270D02*
X000701Y011270D01*
X001105Y010953D02*
X001285Y010953D01*
X007551Y006197D02*
X009761Y006197D01*
X009878Y006355D02*
X007664Y006355D01*
X008098Y002867D02*
X008293Y002867D01*
X008221Y002233D02*
X008159Y002233D01*
X008023Y002075D02*
X008364Y002075D01*
X008386Y001758D02*
X007977Y001758D01*
X008134Y001599D02*
X008229Y001599D01*
X008977Y001758D02*
X009386Y001758D01*
X009229Y001599D02*
X009134Y001599D01*
X008999Y002075D02*
X009364Y002075D01*
X009221Y002233D02*
X009142Y002233D01*
X009171Y002709D02*
X009192Y002709D01*
X009293Y002867D02*
X009070Y002867D01*
X009977Y001758D02*
X010386Y001758D01*
X010229Y001599D02*
X010134Y001599D01*
X010977Y001758D02*
X011386Y001758D01*
X011229Y001599D02*
X011134Y001599D01*
X011977Y001758D02*
X012386Y001758D01*
X012229Y001599D02*
X012134Y001599D01*
X012977Y001758D02*
X013386Y001758D01*
X013229Y001599D02*
X013134Y001599D01*
X007386Y001758D02*
X006977Y001758D01*
X007134Y001599D02*
X007229Y001599D01*
X006386Y001758D02*
X005977Y001758D01*
X006134Y001599D02*
X006229Y001599D01*
X005386Y001758D02*
X004977Y001758D01*
X005134Y001599D02*
X005229Y001599D01*
X004386Y001758D02*
X003977Y001758D01*
X004134Y001599D02*
X004229Y001599D01*
X003386Y001758D02*
X002977Y001758D01*
X003134Y001599D02*
X003229Y001599D01*
X002386Y001758D02*
X001977Y001758D01*
X002134Y001599D02*
X002229Y001599D01*
X001386Y001758D02*
X000996Y001758D01*
X001149Y001599D02*
X001229Y001599D01*
X000701Y001599D02*
X000661Y001599D01*
X000661Y001440D02*
X000701Y001440D01*
X000701Y001758D02*
X000661Y001758D01*
D12*
X003981Y007006D03*
X005581Y009606D03*
D13*
X005281Y009606D01*
X004681Y010206D01*
X004681Y011306D01*
X003881Y007106D02*
X003981Y007006D01*
X008681Y003006D02*
X008681Y002506D01*
X008681Y003006D02*
X010081Y004406D01*
X010081Y006106D01*
X011181Y005406D02*
X011281Y005406D01*
X012381Y005906D02*
X012481Y005906D01*
X011381Y008206D02*
X011281Y008306D01*
X010981Y009906D02*
X010981Y010006D01*
D14*
X010981Y009906D03*
X011381Y008206D03*
X010081Y006106D03*
X011181Y005406D03*
X012381Y005906D03*
M02*
