%
M48
M72
T01C0.0160
T02C0.0236
T03C0.0400
%
T01
X10081Y6106
X11181Y5406
X12381Y5906
X11381Y8206
X10981Y9906
T02
X5581Y9606
X3981Y7006
T03
X681Y1306
X1681Y1306
X2681Y1306
X3681Y1306
X4681Y1306
X5681Y1306
X6681Y1306
X7681Y1306
X8681Y1306
X9681Y1306
X10681Y1306
X11681Y1306
X12681Y1306
X13681Y1306
X9681Y2506
X8681Y2506
X7681Y2506
X7181Y5436
X7181Y6576
X6681Y11306
X5681Y11306
X4681Y11306
X3681Y11306
X2681Y11306
X1681Y11306
X681Y11306
X7681Y11306
X8681Y11306
X9681Y11306
X10681Y11306
X11681Y11306
X12681Y11306
X13681Y11306
M30
