G75*
G70*
%OFA0B0*%
%FSLAX24Y24*%
%IPPOS*%
%LPD*%
%AMOC8*
5,1,8,0,0,1.08239X$1,22.5*
%
%ADD10R,0.0474X0.0513*%
%ADD11R,0.0237X0.0513*%
%ADD12R,0.0513X0.0474*%
%ADD13C,0.0820*%
%ADD14R,0.0395X0.0198*%
%ADD15R,0.0198X0.0395*%
%ADD16R,0.0394X0.0394*%
%ADD17R,0.0580X0.0330*%
%ADD18OC8,0.0476*%
%ADD19OC8,0.0400*%
D10*
X003981Y007572D03*
X003981Y008241D03*
X009481Y006041D03*
X009481Y005372D03*
X010681Y005372D03*
X010681Y006041D03*
X012381Y006472D03*
X012381Y007141D03*
X010481Y009272D03*
X010481Y009941D03*
D11*
X005665Y008792D03*
X005409Y008792D03*
X005153Y008792D03*
X004898Y008792D03*
X004898Y007020D03*
X005153Y007020D03*
X005409Y007020D03*
X005665Y007020D03*
D12*
X005516Y006006D03*
X004847Y006006D03*
X004847Y005106D03*
X005516Y005106D03*
X003116Y009006D03*
X002447Y009006D03*
X004247Y009506D03*
X004916Y009506D03*
X004916Y010306D03*
X004247Y010306D03*
D13*
X000681Y001306D03*
X001681Y001306D03*
X002681Y001306D03*
X003681Y001306D03*
X004681Y001306D03*
X005681Y001306D03*
X006681Y001306D03*
X007681Y001306D03*
X008681Y001306D03*
X009681Y001306D03*
X010681Y001306D03*
X011681Y001306D03*
X012681Y001306D03*
X013681Y001306D03*
X009681Y002506D03*
X008681Y002506D03*
X007681Y002506D03*
X007181Y005436D03*
X007181Y006576D03*
X006681Y011306D03*
X005681Y011306D03*
X004681Y011306D03*
X003681Y011306D03*
X002681Y011306D03*
X001681Y011306D03*
X000681Y011306D03*
X007681Y011306D03*
X008681Y011306D03*
X009681Y011306D03*
X010681Y011306D03*
X011681Y011306D03*
X012681Y011306D03*
X013681Y011306D03*
D14*
X010969Y008098D03*
X010969Y007902D03*
X010969Y007705D03*
X010969Y007508D03*
X010969Y007311D03*
X010969Y007114D03*
X009394Y007114D03*
X009394Y007311D03*
X009394Y007508D03*
X009394Y007705D03*
X009394Y007902D03*
X009394Y008098D03*
D15*
X009689Y008394D03*
X009886Y008394D03*
X010083Y008394D03*
X010280Y008394D03*
X010477Y008394D03*
X010674Y008394D03*
X010674Y006819D03*
X010477Y006819D03*
X010280Y006819D03*
X010083Y006819D03*
X009886Y006819D03*
X009689Y006819D03*
D16*
X010181Y007606D03*
D17*
X008181Y006326D03*
X008181Y006006D03*
X008181Y005686D03*
D18*
X003981Y007006D03*
X005581Y009606D03*
D19*
X010081Y006106D03*
X011181Y005406D03*
X012381Y005906D03*
X011381Y008206D03*
X010981Y009906D03*
M02*
